# xmcd
#
# Track frame offsets:
#	150
#	19920
#	48770
#	88920
#	111147
#	141677
#	162665
#	187190
#	218060
#	246737
#	279120
#
# Disc length: 3921 seconds
#
# Revision: 1
# Processed by: cddbd v1.5.1PL0 Copyright (c) Steve Scherf et al.
# Submitted via: CDex 1.50Beta5
#
DISCID=ab0f4f0b
DTITLE=嶋津健一 - Double Double Bass Session
DYEAR=1900
DGENRE=
TTITLE0=宙の音
TTITLE1=黒ネコの理由
TTITLE2=べス・ユー・イズ・マイ・ウーマン・ナウ
TTITLE3=ビコ
TTITLE4=はるかなる山の呼び声
TTITLE5=オールド・ダイアリー
TTITLE6=ノーホェアーマン
TTITLE7=イット・ネバー・エンタード・マイ・マインド
TTITLE8=ザ・デューク
TTITLE9=ジャンゴ
TTITLE10=「呼応」より
EXTD=
EXTT0=
EXTT1=
EXTT2=
EXTT3=
EXTT4=
EXTT5=
EXTT6=
EXTT7=
EXTT8=
EXTT9=
EXTT10=
PLAYORDER=
